<?xml version="1.0" encoding="utf-8"?>
<!-- Generator: Adobe Illustrator 23.0.1, SVG Export Plug-In . SVG Version: 6.00 Build 0)  -->
<svg version="1.1" id="Layer_1" xmlns="http://www.w3.org/2000/svg" xmlns:xlink="http://www.w3.org/1999/xlink" x="0px" y="0px"
	 viewBox="0 0 185.83 185.83" style="enable-background:new 0 0 185.83 185.83;" xml:space="preserve">
<style type="text/css">
	.st0{fill:#FFFFFF;stroke:#000000;stroke-miterlimit:10;}
	.st1{fill:#606161;}
	.st2{fill:#343A40;}
	.st3{fill:#FFFFFF;}
</style>
<polygon class="st0" points="-520.27,209.82 -582.47,209.82 -582.47,151.9 -647.47,151.9 -647.47,209.82 -700.27,209.82 
	-700.27,274.82 -647.47,274.82 -647.47,331.9 -582.47,331.9 -582.47,274.82 -520.27,274.82 "/>
<rect x="-99" y="393.61" style="fill:none;" width="286.94" height="41.84"/>
<text transform="matrix(1 0 0 1 -23.2586 431.6056)" style="font-family:'Verdana-Bold'; font-size:50px; letter-spacing:10;">FUN</text>
<g>
	<rect x="-27.19" y="291.73" style="fill:none;" width="87.23" height="242.55"/>
	
		<text transform="matrix(1 0 0 1 40.223 333.0112)" style="font-family:'Verdana-Bold'; font-size:50px;glyph-orientation-vertical:0;writing-mode:tb; letter-spacing:5;">hub</text>
</g>
<g>
	<path class="st1" d="M-647.31,230.8h-16.72v6.76h15.5v7.03h-15.5v15.53h-9.33v-36.35h26.05V230.8z"/>
	<path class="st1" d="M-599.01,246.96c0,4.49-1.37,7.93-4.1,10.33s-6.76,3.59-12.08,3.59s-9.35-1.2-12.07-3.59
		c-2.73-2.39-4.09-5.83-4.09-10.3v-23.22h9.42v22.68c0,2.52,0.53,4.4,1.59,5.64c1.06,1.24,2.77,1.86,5.15,1.86
		c2.34,0,4.06-0.59,5.14-1.78c1.08-1.19,1.62-3.09,1.62-5.71v-22.68h9.42V246.96z"/>
	<path class="st1" d="M-547.19,260.12h-9.03l-15.43-24.95v24.95h-8.59v-36.35h11.21l13.26,20.83v-20.83h8.59V260.12z"/>
</g>
<g>
	<g>
		<path class="st1" d="M-598.88,205.07h-9.38v-16.02h-13.84v16.02h-9.38v-36.35h9.38v13.31h13.84v-13.31h9.38V205.07z"/>
		<path class="st1" d="M-599,246.91c0,4.49-1.37,7.93-4.1,10.33s-6.76,3.59-12.08,3.59s-9.35-1.2-12.07-3.59
			c-2.73-2.39-4.09-5.83-4.09-10.3v-23.22h9.42v22.68c0,2.52,0.53,4.4,1.59,5.64c1.06,1.24,2.77,1.86,5.15,1.86
			c2.34,0,4.06-0.59,5.14-1.78c1.08-1.19,1.62-3.09,1.62-5.71v-22.68h9.42V246.91z"/>
		<path class="st1" d="M-598.47,303.94c0,1.76-0.35,3.33-1.06,4.71c-0.71,1.38-1.68,2.53-2.92,3.44c-1.43,1.07-3.01,1.84-4.72,2.29
			c-1.72,0.46-3.89,0.68-6.53,0.68h-15.87v-36.35h14.11c2.93,0,5.07,0.1,6.43,0.29c1.36,0.2,2.71,0.63,4.04,1.29
			c1.38,0.7,2.41,1.64,3.09,2.82c0.68,1.18,1.01,2.53,1.01,4.04c0,1.76-0.46,3.31-1.39,4.65c-0.93,1.34-2.24,2.39-3.93,3.14v0.2
			c2.38,0.47,4.26,1.45,5.65,2.93C-599.17,299.56-598.47,301.52-598.47,303.94z M-610.48,289c0-0.6-0.15-1.2-0.45-1.81
			c-0.3-0.6-0.83-1.05-1.6-1.34c-0.68-0.26-1.53-0.4-2.55-0.43c-1.02-0.03-2.45-0.04-4.28-0.04h-0.88v7.69h1.46
			c1.48,0,2.74-0.02,3.78-0.07c1.04-0.05,1.86-0.21,2.47-0.49c0.85-0.37,1.4-0.86,1.66-1.45
			C-610.61,290.47-610.48,289.78-610.48,289z M-608.21,303.79c0-1.16-0.22-2.05-0.67-2.67c-0.45-0.63-1.21-1.09-2.28-1.4
			c-0.73-0.21-1.74-0.33-3.02-0.34c-1.28-0.02-2.62-0.02-4.02-0.02h-2.05v9.06h0.68c2.63,0,4.52-0.01,5.65-0.02
			c1.14-0.02,2.19-0.23,3.14-0.63c0.97-0.41,1.64-0.95,2.01-1.62C-608.4,305.45-608.21,304.67-608.21,303.79z"/>
	</g>
</g>
<g>
	<path class="st2" d="M88.84,149.02c1.04-0.05,1.86-0.21,2.47-0.49c0.85-0.37,1.4-0.86,1.66-1.45c0.26-0.59,0.39-1.28,0.39-2.06
		c0-0.6-0.15-1.2-0.45-1.81c-0.3-0.6-0.83-1.05-1.6-1.34c-0.68-0.26-1.53-0.4-2.55-0.43c-1.02-0.03-2.45-0.04-4.28-0.04h-0.88v7.69
		h1.46C86.54,149.1,87.8,149.07,88.84,149.02z"/>
	<path class="st2" d="M92.68,155.74c-0.73-0.21-1.74-0.33-3.02-0.34c-1.28-0.02-2.62-0.02-4.02-0.02h-2.05v9.06h0.68
		c2.63,0,4.52-0.01,5.65-0.02c1.14-0.02,2.19-0.23,3.14-0.63c0.97-0.41,1.64-0.95,2.01-1.62c0.37-0.68,0.55-1.45,0.55-2.33
		c0-1.16-0.22-2.05-0.67-2.67C94.51,156.51,93.75,156.05,92.68,155.74z"/>
	<path class="st2" d="M92.92,0C41.6,0,0,41.6,0,92.92s41.6,92.92,92.92,92.92c51.32,0,92.92-41.6,92.92-92.92S144.23,0,92.92,0z
		 M72.37,14.74h9.38v13.31h13.84V14.74h9.38v36.35h-9.38V35.08H81.75v16.02h-9.38V14.74z M55.88,82.19H39.15v6.76h15.5v7.03h-15.5
		v15.53h-9.33V75.16h26.05V82.19z M71.84,75.16h0.66v-0.42h9.42v22.68c0,2.52,0.53,4.4,1.59,5.64c1.06,1.24,2.77,1.86,5.15,1.86
		c1.56,0,2.84-0.27,3.84-0.8c0.23-0.17,0.45-0.36,0.64-0.56c1.08-1.19,1.62-3.09,1.62-5.71V75.16h0.66v-0.42h9.42v23.19
		c0,4.49-1.37,7.93-4.1,10.33c-0.5,0.44-1.05,0.82-1.64,1.17c-2.69,1.89-6.38,2.83-11.11,2.83c-5.32,0-9.35-1.2-12.07-3.59
		c-2.73-2.39-4.09-5.83-4.09-10.3V75.16z M104.31,164.67c-0.71,1.38-1.68,2.53-2.92,3.44c-1.43,1.07-3.01,1.84-4.72,2.29
		c-1.72,0.46-3.89,0.68-6.53,0.68H74.27v-36.35h14.11c2.93,0,5.07,0.1,6.43,0.29c1.36,0.2,2.71,0.63,4.04,1.29
		c1.38,0.7,2.41,1.64,3.09,2.82c0.68,1.18,1.01,2.53,1.01,4.04c0,1.76-0.46,3.31-1.39,4.65c-0.93,1.34-2.24,2.39-3.93,3.14v0.2
		c2.38,0.47,4.26,1.45,5.65,2.93c1.39,1.48,2.09,3.43,2.09,5.86C105.37,161.72,105.02,163.29,104.31,164.67z M156.01,111.51h-9.03
		l-15.43-24.95v24.95h-8.59V75.16h11.21l13.26,20.83V75.16h8.59V111.51z"/>
</g>
<g>
	<path class="st3" d="M-189.11,149.02c1.04-0.05,1.86-0.21,2.47-0.49c0.85-0.37,1.4-0.86,1.66-1.45c0.26-0.59,0.39-1.28,0.39-2.06
		c0-0.6-0.15-1.2-0.45-1.81c-0.3-0.6-0.83-1.05-1.6-1.34c-0.68-0.26-1.53-0.4-2.55-0.43c-1.02-0.03-2.45-0.04-4.28-0.04h-0.88v7.69
		h1.46C-191.41,149.1-190.15,149.07-189.11,149.02z"/>
	<path class="st3" d="M-185.27,155.74c-0.73-0.21-1.74-0.33-3.02-0.34c-1.28-0.02-2.62-0.02-4.02-0.02h-2.05v9.06h0.68
		c2.63,0,4.52-0.01,5.65-0.02c1.14-0.02,2.19-0.23,3.14-0.63c0.97-0.41,1.64-0.95,2.01-1.62c0.37-0.68,0.55-1.45,0.55-2.33
		c0-1.16-0.22-2.05-0.67-2.67C-183.44,156.51-184.2,156.05-185.27,155.74z"/>
	<path class="st3" d="M-185.04,0c-51.32,0-92.92,41.6-92.92,92.92s41.6,92.92,92.92,92.92c51.32,0,92.92-41.6,92.92-92.92
		S-133.72,0-185.04,0z M-205.58,14.74h9.38v13.31h13.84V14.74h9.38v36.35h-9.38V35.08h-13.84v16.02h-9.38V14.74z M-222.07,82.19
		h-16.72v6.76h15.5v7.03h-15.5v15.53h-9.33V75.16h26.05V82.19z M-206.12,75.16h0.66v-0.42h9.42v22.68c0,2.52,0.53,4.4,1.59,5.64
		c1.06,1.24,2.77,1.86,5.15,1.86c1.56,0,2.84-0.27,3.84-0.8c0.23-0.17,0.45-0.36,0.64-0.56c1.08-1.19,1.62-3.09,1.62-5.71V75.16
		h0.66v-0.42h9.42v23.19c0,4.49-1.37,7.93-4.1,10.33c-0.5,0.44-1.05,0.82-1.64,1.17c-2.69,1.89-6.38,2.83-11.11,2.83
		c-5.32,0-9.35-1.2-12.07-3.59c-2.73-2.39-4.09-5.83-4.09-10.3V75.16z M-173.64,164.67c-0.71,1.38-1.68,2.53-2.92,3.44
		c-1.43,1.07-3.01,1.84-4.72,2.29c-1.72,0.46-3.89,0.68-6.53,0.68h-15.87v-36.35h14.11c2.93,0,5.07,0.1,6.43,0.29
		c1.36,0.2,2.71,0.63,4.04,1.29c1.38,0.7,2.41,1.64,3.09,2.82c0.68,1.18,1.01,2.53,1.01,4.04c0,1.76-0.46,3.31-1.39,4.65
		c-0.93,1.34-2.24,2.39-3.93,3.14v0.2c2.38,0.47,4.26,1.45,5.65,2.93c1.39,1.48,2.09,3.43,2.09,5.86
		C-172.58,161.72-172.94,163.29-173.64,164.67z M-121.95,111.51h-9.03l-15.43-24.95v24.95H-155V75.16h11.21l13.26,20.83V75.16h8.59
		V111.51z"/>
</g>
</svg>
